<?xml version="1.0" standalone="no"?>
<!DOCTYPE svg PUBLIC "-//W3C//DTD SVG 20010904//EN"
 "http://www.w3.org/TR/2001/REC-SVG-20010904/DTD/svg10.dtd">
<svg version="1.0" xmlns="http://www.w3.org/2000/svg"
 width="500.000000pt" height="500.000000pt" viewBox="0 0 500.000000 500.000000"
 preserveAspectRatio="xMidYMid meet">

<g transform="translate(0.000000,500.000000) scale(0.100000,-0.100000)"
fill="#000000" stroke="none">
<path d="M2308 4990 c-681 -50 -1297 -372 -1743 -910 -286 -346 -470 -765
-540 -1235 -20 -130 -23 -499 -5 -640 67 -535 288 -1014 645 -1395 391 -419
857 -672 1420 -772 144 -25 518 -36 678 -19 469 50 915 234 1292 531 44 35
139 122 211 195 411 415 656 932 715 1510 15 148 7 480 -15 620 -73 461 -267
889 -561 1235 -406 477 -956 780 -1570 864 -144 19 -380 27 -527 16z m452
-154 c336 -38 656 -146 938 -315 620 -373 1026 -986 1128 -1706 24 -168 24
-469 0 -635 -59 -407 -209 -766 -459 -1099 -94 -126 -326 -358 -450 -450 -324
-242 -643 -378 -1043 -447 -140 -24 -185 -27 -374 -27 -410 0 -738 79 -1089
264 -704 369 -1173 1063 -1252 1853 -14 147 -7 454 15 590 47 293 165 615 313
856 142 230 386 500 590 654 358 268 780 431 1218 469 105 9 353 5 465 -7z"/>
<path d="M2025 4366 c-39 -18 -80 -62 -99 -108 -14 -32 -16 -110 -16 -559 l0
-522 -50 47 c-69 65 -126 88 -230 93 -76 4 -90 2 -130 -19 -29 -16 -55 -41
-73 -70 -71 -115 -31 -240 96 -301 106 -50 137 -103 137 -235 0 -287 114 -532
331 -716 39 -33 77 -76 95 -108 27 -50 29 -62 34 -193 4 -126 7 -140 23 -143
18 -4 19 5 15 145 -5 205 -4 204 -201 392 -163 155 -240 338 -253 601 -9 179
-44 243 -158 294 -59 27 -79 46 -101 100 -31 74 5 159 81 197 57 27 143 23
221 -11 58 -25 148 -112 159 -154 3 -14 4 -92 2 -174 -4 -127 -8 -157 -31
-223 -45 -127 -53 -199 -22 -199 14 0 25 22 25 51 0 10 14 61 32 111 l32 93 6
742 c5 732 5 742 26 770 73 99 212 98 273 -1 21 -33 21 -46 21 -622 0 -324 4
-595 9 -603 5 -8 16 -11 25 -8 14 6 16 42 16 319 0 295 1 315 20 346 59 97
199 104 268 14 l27 -35 5 -321 c5 -295 6 -321 23 -324 16 -3 17 14 17 260 0
147 5 279 10 300 13 46 77 105 124 114 71 13 143 -24 175 -90 20 -40 21 -60
21 -314 0 -263 1 -272 19 -272 19 0 20 10 23 209 3 233 5 239 78 289 68 46
176 18 219 -58 21 -37 21 -47 21 -529 0 -419 -2 -503 -16 -564 -21 -91 -50
-157 -110 -249 -99 -153 -124 -243 -124 -452 0 -135 1 -147 18 -144 15 3 18
22 23 163 8 200 33 283 119 410 47 69 91 164 111 243 18 69 19 114 19 585 0
500 0 512 -21 555 -13 26 -38 54 -62 70 -35 23 -51 27 -118 27 -72 0 -80 -2
-118 -33 l-41 -33 0 27 c0 111 -97 205 -211 204 -41 0 -109 -30 -139 -60 -12
-12 -22 -20 -23 -18 -1 2 -11 21 -22 43 -54 108 -211 138 -305 58 l-30 -25 0
224 c0 122 -5 239 -10 259 -26 95 -97 149 -195 148 -33 0 -73 -6 -90 -13z"/>
<path d="M2551 1242 c-52 -26 -74 -63 -79 -130 -5 -73 15 -124 60 -152 40 -24
107 -26 148 -5 29 15 30 19 30 80 l0 65 -55 0 c-41 0 -55 -4 -55 -14 0 -9 12
-16 33 -18 30 -3 32 -5 32 -43 l0 -40 -43 -3 c-58 -4 -88 17 -102 70 -14 50
-6 97 21 132 26 33 80 44 113 22 22 -14 25 -14 37 0 11 13 10 18 -6 27 -51 30
-89 33 -134 9z"/>
<path d="M1710 1095 c0 -147 1 -155 20 -155 17 0 19 8 22 68 l3 67 58 3 c41 2
57 7 57 17 0 10 -16 15 -57 17 l-58 3 -3 48 -3 47 70 0 c64 0 71 2 71 20 0 19
-7 20 -90 20 l-90 0 0 -155z"/>
<path d="M1980 1095 l0 -155 25 0 25 0 0 155 0 155 -25 0 -25 0 0 -155z"/>
<path d="M2140 1096 c0 -149 1 -156 20 -156 19 0 20 7 20 128 1 121 1 126 16
97 9 -16 41 -74 71 -127 45 -82 58 -98 79 -98 l24 0 0 155 0 155 -27 0 -26 0
7 -122 c4 -67 4 -119 0 -116 -3 4 -34 58 -68 120 -53 96 -66 113 -89 116 l-27
3 0 -155z"/>
<path d="M2810 1095 l0 -155 95 0 c88 0 95 1 95 20 0 18 -7 20 -70 20 l-70 0
0 55 0 55 55 0 c42 0 55 3 55 15 0 12 -13 15 -55 15 l-55 0 0 45 0 45 65 0
c58 0 65 2 65 20 0 19 -7 20 -90 20 l-90 0 0 -155z"/>
<path d="M3100 1095 c0 -148 1 -155 20 -155 18 0 20 7 20 65 l0 65 29 0 c25 0
34 -8 63 -62 28 -51 40 -64 62 -66 l28 -4 -36 65 -37 65 31 30 c30 30 38 69
24 107 -11 28 -60 45 -134 45 l-70 0 0 -155z m151 96 c34 -42 4 -81 -63 -84
l-43 -2 -3 44 c-5 66 1 75 51 68 25 -3 48 -14 58 -26z"/>
<path d="M1831 733 c-49 -25 -73 -63 -79 -122 -10 -104 46 -181 130 -181 77 0
124 47 135 138 14 123 -90 215 -186 165z m90 -33 c54 -29 66 -155 19 -205 -23
-25 -60 -32 -95 -19 -26 10 -45 60 -45 119 0 49 4 60 29 86 31 30 59 36 92 19z"/>
<path d="M2120 585 c0 -148 1 -155 20 -155 18 0 20 7 20 65 l0 65 29 0 c25 0
34 -8 63 -62 28 -51 40 -64 62 -66 l28 -4 -36 65 -37 65 31 30 c30 30 38 69
24 107 -11 28 -60 45 -134 45 l-70 0 0 -155z m151 96 c34 -42 4 -81 -63 -84
l-43 -2 -3 44 c-5 66 1 75 51 68 25 -3 48 -14 58 -26z"/>
<path d="M2430 585 l0 -155 53 1 c117 1 167 47 167 153 0 73 -14 103 -59 133
-27 18 -48 23 -97 23 l-64 0 0 -155z m116 110 c44 -18 69 -71 59 -129 -10 -64
-44 -96 -104 -96 l-31 0 0 113 c0 63 3 117 7 120 10 11 31 8 69 -8z"/>
<path d="M2760 585 l0 -155 90 0 c83 0 90 1 90 20 0 18 -7 20 -71 20 l-70 0 3
53 3 52 58 3 c42 2 57 7 57 17 0 12 -14 15 -60 15 l-60 0 0 45 0 44 67 3 c55
2 68 6 71 21 3 15 -6 17 -87 17 l-91 0 0 -155z"/>
<path d="M3040 586 l0 -156 25 0 c24 0 25 2 25 65 0 62 1 65 25 65 19 0 31
-13 60 -65 29 -52 42 -65 61 -65 13 0 24 2 24 4 0 3 -16 32 -36 65 l-36 61 31
26 c25 20 31 34 31 64 0 22 -8 47 -19 61 -17 21 -29 24 -105 28 l-86 3 0 -156z
m158 97 c6 -9 12 -22 12 -29 0 -26 -36 -54 -77 -60 l-43 -7 0 63 0 63 48 -7
c26 -3 52 -14 60 -23z"/>
</g>
</svg>
